<?xml version="1.0" encoding="UTF-8"?>
<svg version="1.1" xmlns="http://www.w3.org/2000/svg" width="512" height="512">
<path d="M0 0 C0.89315918 0.19867676 1.78631836 0.39735352 2.70654297 0.60205078 C44.19073513 9.98078008 85.02822579 32.49139842 112 66 C112.81726563 66.99128906 113.63453125 67.98257813 114.4765625 69.00390625 C137.02719449 96.70943011 152.5339149 129.55232115 158 165 C158.11424316 165.74024414 158.22848633 166.48048828 158.34619141 167.24316406 C166.19471688 221.17125463 151.34863163 275.03339809 119.125 318.5 C117.33925434 320.88708558 115.54834835 323.27019789 113.75537109 325.65185547 C110.93676002 329.42228681 108.18635389 333.24106471 105.4375 337.0625 C104.90455322 337.80185791 104.37160645 338.54121582 103.82250977 339.30297852 C102.21410318 341.53467006 100.6068709 343.76720252 99 346 C91.79936792 356.00550398 84.55749214 365.97688478 77.23291016 375.89208984 C71.09080366 384.21502749 65.04209317 392.60432215 59 401 C51.79877656 411.0063257 44.55744101 420.97939506 37.23071289 430.89428711 C33.28592959 436.23835616 29.38037592 441.60901545 25.5 447 C20.46490785 453.99522535 15.37176363 460.94526008 10.24365234 467.87255859 C6.71714262 472.64371881 3.24205035 477.44748923 -0.19946289 482.28027344 C-9.05444076 494.67182341 -15.96923104 503.98974368 -31 509 C-44.02449581 509.93509201 -54.78758482 509.21324537 -65.4375 500.8125 C-71.66703785 494.82989879 -76.39632967 487.46215867 -81.31494141 480.40673828 C-83.98263972 476.59651371 -86.71000275 472.83003195 -89.4375 469.0625 C-89.97084961 468.32338379 -90.50419922 467.58426758 -91.05371094 466.82275391 C-95.58319628 460.552307 -100.17221768 454.32669535 -104.76928711 448.10571289 C-109.25816363 442.02455095 -113.68990813 435.90404491 -118.10546875 429.76953125 C-122.03392105 424.31916038 -126.00714521 418.90332922 -130 413.5 C-137.27959514 403.6460488 -144.44830513 393.71425404 -151.60449219 383.77050781 C-157.6923875 375.31406964 -163.80868741 366.88111091 -170 358.5 C-175.64240009 350.86194583 -181.22666986 343.18429881 -186.7734375 335.4765625 C-188.95637287 332.44330538 -191.1497901 329.41804759 -193.3515625 326.3984375 C-228.42139415 278.25154617 -246.63971163 225.446625 -238.02734375 165.18359375 C-229.62549046 112.2161123 -200.29438059 65.22170856 -157.08203125 33.60229492 C-133.79738271 16.883684 -107.99305746 6.07435814 -80 0 C-79.24170898 -0.17644043 -78.48341797 -0.35288086 -77.70214844 -0.53466797 C-53.72870854 -5.95582459 -23.89586062 -5.59799892 0 0 Z M-115 132 C-133.54166098 154.5486997 -139.73297514 180.19981471 -138 209 C-135.34459586 233.81073035 -121.4325299 256.3693268 -102.95703125 272.6484375 C-97.94314622 276.63570142 -92.58057409 279.87319592 -87 283 C-85.77023438 283.70769531 -85.77023438 283.70769531 -84.515625 284.4296875 C-62.8851078 296.11597364 -36.49931522 298.07671176 -13.03344727 291.42724609 C11.79482471 283.92123231 33.31187999 267.53461085 46.18896484 244.91113281 C51.30452005 235.34889499 54.75756297 225.60406664 57 215 C57.19207031 214.11570312 57.38414062 213.23140625 57.58203125 212.3203125 C61.04221083 184.8329046 55.01532666 158.52007457 38.1875 136.375 C23.93908988 118.20011353 4.50718265 105.47549898 -18 100 C-18.91394531 99.77570313 -19.82789063 99.55140625 -20.76953125 99.3203125 C-55.61087046 92.20585722 -91.63871108 105.65231951 -115 132 Z " fill="#F7577D" transform="translate(296,3)"/>
<path d="M0 0 C14.52204989 14.38861976 22.35399788 32.2226229 22.68798828 52.70581055 C22.51650137 73.42048982 14.43313876 90.66209795 0.16845703 105.5690918 C-15.44687387 120.48912039 -34.31598941 124.87225765 -55.26123047 124.59643555 C-74.63677055 124.05776991 -91.27779447 114.4649045 -104.43701172 100.64331055 C-118.23759051 84.62782405 -123.01092721 65.18797858 -121.74951172 44.39331055 C-119.42856301 25.60936125 -110.28953725 8.58476571 -95.74951172 -3.60668945 C-66.67924475 -24.82132702 -26.85119265 -25.41289203 0 0 Z " fill="#DFDAF0" transform="translate(305.74951171875,146.606689453125)"/>
</svg>
